<svg xmlns="http://www.w3.org/2000/svg" version="1.1" xmlns:xlink="http://www.w3.org/1999/xlink" xmlns:svgjs="http://svgjs.dev/svgjs" width="1500" height="1687" viewBox="0 0 1500 1687"><g transform="matrix(1,0,0,1,0,0)"><svg viewBox="0 0 320 360" data-background-color="#000000" preserveAspectRatio="xMidYMid meet" height="1687" width="1500" xmlns="http://www.w3.org/2000/svg" xmlns:xlink="http://www.w3.org/1999/xlink"><g id="tight-bounds" transform="matrix(1,0,0,1,0,0)"><svg viewBox="0 0 320 360" height="360" width="320"><rect width="320" height="360" fill="url(#f3b75810-4ff1-4baf-8436-a80a6946b9bd)" mask="url(#a638b2d9-bff2-487d-9397-a521d9ff2552)" data-fill-palette-color="tertiary"></rect><g><svg></svg></g><g><svg viewBox="0 0 320 360" height="360" width="320"><g><path transform="translate(-25.80645,-5.80645) scale(10.32258,10.32258)" d="M18 33.5c8.55 0 15.5-6.95 15.5-15.5 0-8.55-6.95-15.5-15.5-15.5-8.55 0-15.5 6.95-15.5 15.5 0 8.55 6.95 15.5 15.5 15.5zM18.5 32.47v-1c7.04-0.26 12.71-5.93 12.97-12.97h1c-0.26 7.6-6.37 13.71-13.97 13.97zM18.5 3.53c7.6 0.26 13.71 6.37 13.97 13.97h-1c-0.26-7.04-5.93-12.71-12.97-12.97zM30.5 18c0 6.89-5.61 12.5-12.5 12.5-6.89 0-12.5-5.61-12.5-12.5 0-6.89 5.61-12.5 12.5-12.5 6.89 0 12.5 5.61 12.5 12.5zM17.5 3.53v1c-7.04 0.26-12.71 5.93-12.97 12.97h-1c0.26-7.6 6.37-13.71 13.97-13.97zM4.53 18.5c0.26 7.04 5.93 12.71 12.97 12.97v1c-7.6-0.26-13.71-6.37-13.97-13.97z" fill="url(#f3b75810-4ff1-4baf-8436-a80a6946b9bd)" fill-rule="nonzero" stroke="none" stroke-width="1" stroke-linecap="butt" stroke-linejoin="miter" stroke-miterlimit="10" stroke-dasharray="" stroke-dashoffset="0" font-family="none" font-weight="none" font-size="none" text-anchor="none" style="mix-blend-mode: normal" data-fill-palette-color="tertiary"></path></g><g transform="matrix(1,0,0,1,64,155.8339995968566)"><svg viewBox="0 0 192 48.332000806286814" height="48.332000806286814" width="192"><g><svg viewBox="0 0 272.2361843905512 68.52978897637796" height="48.332000806286814" width="192"><g transform="matrix(1,0,0,1,80.23618439055119,9.471193700787403)"><svg viewBox="0 0 192 49.58740157480315" height="49.58740157480315" width="192"><g id="textblocktransform"><svg viewBox="0 0 192 49.58740157480315" height="49.58740157480315" width="192" id="textblock"><g><svg viewBox="0 0 192 49.58740157480315" height="49.58740157480315" width="192"><g transform="matrix(1,0,0,1,0,0)"><svg width="192" viewBox="4 -40.45 158.74 41" height="49.58740157480315" data-palette-color="url(#39a55ba9-10fa-40f9-a85d-f42fff30cb3a)"></svg></g></svg></g></svg></g></svg></g><g><svg viewBox="0 0 68.52978897637796 68.52978897637796" height="68.52978897637796" width="68.52978897637796"><g><svg xmlns="http://www.w3.org/2000/svg" xmlns:xlink="http://www.w3.org/1999/xlink" version="1.0" x="0" y="0" viewBox="1 1 48 48" enable-background="new 0 0 50 50" xml:space="preserve" height="68.52978897637796" width="68.52978897637796" class="icon-icon-0" data-fill-palette-color="accent" id="icon-0"></svg></g></svg></g></svg></g></svg></g></svg></g><defs></defs><mask id="3a516a64-8df2-4f21-8f99-924e9c8f39b4"><g id="SvgjsG1021"><svg viewBox="0 0 320 360" height="360" width="320"><g><svg></svg></g><g><svg viewBox="0 0 320 360" height="360" width="320"><g><path transform="translate(-25.80645,-5.80645) scale(10.32258,10.32258)" d="M18 33.5c8.55 0 15.5-6.95 15.5-15.5 0-8.55-6.95-15.5-15.5-15.5-8.55 0-15.5 6.95-15.5 15.5 0 8.55 6.95 15.5 15.5 15.5zM18.5 32.47v-1c7.04-0.26 12.71-5.93 12.97-12.97h1c-0.26 7.6-6.37 13.71-13.97 13.97zM18.5 3.53c7.6 0.26 13.71 6.37 13.97 13.97h-1c-0.26-7.04-5.93-12.71-12.97-12.97zM30.5 18c0 6.89-5.61 12.5-12.5 12.5-6.89 0-12.5-5.61-12.5-12.5 0-6.89 5.61-12.5 12.5-12.5 6.89 0 12.5 5.61 12.5 12.5zM17.5 3.53v1c-7.04 0.26-12.71 5.93-12.97 12.97h-1c0.26-7.6 6.37-13.71 13.97-13.97zM4.53 18.5c0.26 7.04 5.93 12.71 12.97 12.97v1c-7.6-0.26-13.71-6.37-13.97-13.97z" fill="black" fill-rule="nonzero" stroke="none" stroke-width="1" stroke-linecap="butt" stroke-linejoin="miter" stroke-miterlimit="10" stroke-dasharray="" stroke-dashoffset="0" font-family="none" font-weight="none" font-size="none" text-anchor="none" style="mix-blend-mode: normal"></path></g><g transform="matrix(1,0,0,1,64,155.8339995968566)"><svg viewBox="0 0 192 48.332000806286814" height="48.332000806286814" width="192"><g><svg viewBox="0 0 272.2361843905512 68.52978897637796" height="48.332000806286814" width="192"><g transform="matrix(1,0,0,1,80.23618439055119,9.471193700787403)"><svg viewBox="0 0 192 49.58740157480315" height="49.58740157480315" width="192"><g id="SvgjsG1020"><svg viewBox="0 0 192 49.58740157480315" height="49.58740157480315" width="192" id="SvgjsSvg1019"><g><svg viewBox="0 0 192 49.58740157480315" height="49.58740157480315" width="192"><g transform="matrix(1,0,0,1,0,0)"><svg width="192" viewBox="4 -40.45 158.74 41" height="49.58740157480315" data-palette-color="url(#39a55ba9-10fa-40f9-a85d-f42fff30cb3a)"><path d="M14.85-5L21.65-5Q23.5-5 24.25-6.05 25-7.1 25-8.4L25-8.4 25-31.3Q25-32.55 24.25-33.6 23.5-34.65 21.65-34.65L21.65-34.65 9.95-34.65 9.9-2.05Q9.9-0.95 9.05-0.3 8.2 0.35 6.95 0.35L6.95 0.35Q4 0.35 4-2.05L4-2.05 4-36.7Q4-38.5 4.93-39.1 5.85-39.7 7.15-39.7L7.15-39.7 22.9-39.7Q24.2-39.7 25.6-39.15 27-38.6 28.3-37.75L28.3-37.75 28.25-37.75Q29.55-36.8 30.25-35.27 30.95-33.75 30.95-31.75L30.95-31.75 30.95-8Q30.95-3.95 28.25-1.95L28.25-1.95Q26.95-1 25.58-0.48 24.2 0.05 22.9 0.05L22.9 0.05 14.5 0.05Q13.65 0.05 13.18-0.65 12.7-1.35 12.7-2.5L12.7-2.5Q12.7-5 14.85-5L14.85-5ZM43.7-27.9L43.7-2.1Q43.7 0.3 40.95 0.3L40.95 0.3Q38.15 0.3 38.15-2.1L38.15-2.1 38.15-27.9Q38.15-30.3 40.95-30.3L40.95-30.3Q43.7-30.3 43.7-27.9L43.7-27.9ZM44.75-36.6L44.75-36.6Q44.75-35 43.65-33.9 42.55-32.8 40.95-32.8L40.95-32.8Q39.35-32.8 38.22-33.9 37.1-35 37.1-36.6L37.1-36.6Q37.1-38.25 38.22-39.35 39.35-40.45 40.95-40.45L40.95-40.45Q42.55-40.45 43.65-39.35 44.75-38.25 44.75-36.6ZM72.09-26.5L56.15-8.35 56.15-2Q56.15 0.35 53.4 0.35L53.4 0.35Q50.65 0.35 50.65-2L50.65-2 50.65-37.6Q50.65-40 53.4-40L53.4-40Q56.15-40 56.15-37.6L56.15-37.6 56.15-16.4Q57.4-17.9 58.92-19.63 60.45-21.35 61.97-23.13 63.5-24.9 65-26.63 66.5-28.35 67.8-29.85L67.8-29.85 67.8-29.8Q68.7-30.85 69.59-30.85L69.59-30.85Q70.09-30.85 70.57-30.63 71.05-30.4 71.59-30L71.59-30 71.55-30Q72.75-29 72.75-28L72.75-28Q72.75-27.65 72.59-27.23 72.45-26.8 72.09-26.5L72.09-26.5ZM67.34-13.75L72.84-3.35Q73.2-2.7 73.2-2L73.2-2Q73.2-0.7 71.7-0.05L71.7-0.05Q70.7 0.55 69.9 0.55L69.9 0.55Q69.34 0.55 68.84 0.18 68.34-0.2 68.05-0.75L68.05-0.75 63.05-10.4Q62.6-11.15 62.6-11.9L62.6-11.9Q62.6-13.15 63.9-14L63.9-14Q64.25-14.25 64.62-14.45 65-14.65 65.45-14.75L65.45-14.75Q66-14.85 66.5-14.55 67-14.25 67.34-13.75L67.34-13.75ZM86.19-17.5L93.54-17.5Q94.79-17.5 96.22-16.93 97.64-16.35 98.89-15.5L98.89-15.5 98.84-15.5Q100.14-14.55 100.84-13.05 101.54-11.55 101.54-9.45L101.54-9.45 101.54-7.95Q101.54-3.85 98.84-1.9L98.84-1.9Q97.54-0.9 96.19-0.45 94.84 0 93.54 0L93.54 0 85.04 0Q83.74 0 82.39-0.45 81.04-0.9 79.74-1.9L79.74-1.9Q77.04-3.8 77.04-7.95L77.04-7.95 77.04-8.55Q77.04-10.7 79.79-10.65L79.79-10.65Q82.59-10.65 82.59-8.55L82.59-8.55 82.59-8Q82.59-6.8 83.34-5.75 84.09-4.7 85.99-4.7L85.99-4.7 92.59-4.7Q94.49-4.7 95.24-5.75 95.99-6.8 95.99-8L95.99-8 95.99-9.4Q95.99-10.05 95.82-10.65 95.64-11.25 95.24-11.73 94.84-12.2 94.19-12.5 93.54-12.8 92.59-12.8L92.59-12.8 85.29-12.8Q82.74-12.8 79.94-14.6L79.94-14.6Q77.29-16.3 77.29-20.45L77.29-20.45 77.29-22.15Q77.29-24.15 77.99-25.68 78.69-27.2 79.99-28.15L79.99-28.15 79.94-28.15Q81.19-29 82.59-29.55 83.99-30.1 85.29-30.1L85.29-30.1 93.29-30.1Q94.59-30.1 95.97-29.55 97.34-29 98.64-28.15L98.64-28.15 98.59-28.15Q99.89-27.2 100.59-25.68 101.29-24.15 101.29-22.15L101.29-22.15 101.29-21.7Q101.29-20.65 100.59-20.18 99.89-19.7 98.54-19.65L98.54-19.65Q95.79-19.6 95.79-21.7L95.79-21.7 95.79-22.1Q95.79-23.35 95.02-24.38 94.24-25.4 92.39-25.4L92.39-25.4 86.19-25.4Q84.34-25.4 83.57-24.38 82.79-23.35 82.79-22.1L82.79-22.1 82.79-20.9Q82.79-19.6 83.57-18.55 84.34-17.5 86.19-17.5L86.19-17.5ZM113.54-25.4L113.54-2.1Q113.54 0.3 110.79 0.3L110.79 0.3Q108.04 0.3 108.04-2.1L108.04-2.1 108.04-37.6Q108.04-40 110.79-40L110.79-40Q113.54-40 113.54-37.6L113.54-37.6 113.54-30.1 124.09-30.1Q126.64-30.1 129.39-28.2L129.39-28.2Q132.09-26.3 132.09-22.2L132.09-22.2 132.09-2.1Q132.09 0.3 129.34 0.3L129.34 0.3Q126.59 0.3 126.59-2.1L126.59-2.1 126.59-21.75Q126.59-23.05 125.79-24.25L125.79-24.25 125.84-24.2Q125.19-25.4 123.19-25.4L123.19-25.4 113.54-25.4ZM152.79 0L146.24 0Q144.69 0 143.29-0.43 141.89-0.85 140.59-1.65L140.59-1.65 140.59-1.6Q138.14-3.15 138.14-7.3L138.14-7.3 138.14-9.75Q138.14-11.8 138.86-13.33 139.59-14.85 140.89-15.75L140.89-15.75 140.84-15.75Q142.09-16.6 143.49-17.03 144.89-17.45 146.19-17.45L146.19-17.45 157.24-17.45 157.24-22.1Q157.24-23.35 156.46-24.38 155.69-25.4 153.84-25.4L153.84-25.4 147.99-25.4Q146.09-25.4 145.36-24.48 144.64-23.55 144.64-22.3L144.64-22.3 144.64-21.9Q144.64-19.3 141.84-19.3L141.84-19.3Q139.04-19.3 139.04-21.9L139.04-21.9 139.04-22.35Q139.04-24.4 139.76-25.8 140.49-27.2 141.74-28.15L141.74-28.15 141.69-28.15Q142.99-29 144.41-29.55 145.84-30.1 147.14-30.1L147.14-30.1 154.74-30.1Q155.99-30.1 157.41-29.55 158.84-29 160.09-28.15L160.09-28.15 160.04-28.15Q161.34-27.2 162.04-25.68 162.74-24.15 162.74-22.15L162.74-22.15 162.74-2.1Q162.74 0.3 159.99 0.3L159.99 0.3Q159.44 0.3 158.96 0.25 158.49 0.2 158.11-0.03 157.74-0.25 157.51-0.68 157.29-1.1 157.29-1.8L157.29-1.8 157.24-12.75 147.14-12.75Q146.04-12.75 145.44-12.5 144.84-12.25 144.49-11.7L144.49-11.7Q144.09-10.85 143.91-10.38 143.74-9.9 143.74-9.3L143.74-9.3 143.74-7.35Q143.74-6.05 144.51-5.38 145.29-4.7 147.19-4.7L147.19-4.7 152.79-4.7Q154.64-4.7 154.64-2.35L154.64-2.35Q154.64-1.35 154.19-0.68 153.74 0 152.79 0L152.79 0Z" opacity="1" transform="matrix(1,0,0,1,0,0)" fill="white" class="wordmark-text-0" id="SvgjsPath1018"></path></svg></g></svg></g></svg></g></svg></g><g><svg viewBox="0 0 68.52978897637796 68.52978897637796" height="68.52978897637796" width="68.52978897637796"><g><svg xmlns="http://www.w3.org/2000/svg" xmlns:xlink="http://www.w3.org/1999/xlink" version="1.0" x="0" y="0" viewBox="1 1 48 48" enable-background="new 0 0 50 50" xml:space="preserve" height="68.52978897637796" width="68.52978897637796" class="icon-icon-0" data-fill-palette-color="accent" id="SvgjsSvg1017"><g fill="black"><g fill="black"><rect x="1" y="1" fill="black" width="23" height="5"></rect><rect x="1" y="10" fill="black" width="23" height="5"></rect><rect x="1" y="19" fill="black" width="23" height="5"></rect></g><g fill="black"><rect x="26" y="26" fill="black" width="23" height="5"></rect><rect x="26" y="35" fill="black" width="23" height="5"></rect><rect x="26" y="44" fill="black" width="23" height="5"></rect></g><g fill="black"><rect x="19" y="26" fill="black" width="5" height="23"></rect><rect x="10" y="26" fill="black" width="5" height="23"></rect><rect x="1" y="26" fill="black" width="5" height="23"></rect></g><g fill="black"><rect x="44" y="1" fill="black" width="5" height="23"></rect><rect x="35" y="1" fill="black" width="5" height="23"></rect><rect x="26" y="1" fill="black" width="5" height="23"></rect></g></g></svg></g></svg></g></svg></g></svg></g></svg></g><defs><mask></mask></defs></svg><rect width="320" height="360" fill="black" stroke="none" visibility="hidden"></rect></g></mask><linearGradient x1="0" x2="1" y1="0.578" y2="0.595" id="39a55ba9-10fa-40f9-a85d-f42fff30cb3a"><stop stop-color="#dede50" offset="0"></stop><stop stop-color="#559c49" offset="1"></stop></linearGradient><rect width="320" height="360" fill="url(#39a55ba9-10fa-40f9-a85d-f42fff30cb3a)" mask="url(#3a516a64-8df2-4f21-8f99-924e9c8f39b4)" data-fill-palette-color="primary"></rect><mask id="3fe5fc8c-4595-46d7-895b-67ca716ac43e"><g id="SvgjsG1040"><svg viewBox="0 0 320 360" height="360" width="320"><g><svg></svg></g><g><svg viewBox="0 0 320 360" height="360" width="320"><g><path transform="translate(-25.80645,-5.80645) scale(10.32258,10.32258)" d="M18 33.5c8.55 0 15.5-6.95 15.5-15.5 0-8.55-6.95-15.5-15.5-15.5-8.55 0-15.5 6.95-15.5 15.5 0 8.55 6.95 15.5 15.5 15.5zM18.5 32.47v-1c7.04-0.26 12.71-5.93 12.97-12.97h1c-0.26 7.6-6.37 13.71-13.97 13.97zM18.5 3.53c7.6 0.26 13.71 6.37 13.97 13.97h-1c-0.26-7.04-5.93-12.71-12.97-12.97zM30.5 18c0 6.89-5.61 12.5-12.5 12.5-6.89 0-12.5-5.61-12.5-12.5 0-6.89 5.61-12.5 12.5-12.5 6.89 0 12.5 5.61 12.5 12.5zM17.5 3.53v1c-7.04 0.26-12.71 5.93-12.97 12.97h-1c0.26-7.6 6.37-13.71 13.97-13.97zM4.53 18.5c0.26 7.04 5.93 12.71 12.97 12.97v1c-7.6-0.26-13.71-6.37-13.97-13.97z" fill="black" fill-rule="nonzero" stroke="none" stroke-width="1" stroke-linecap="butt" stroke-linejoin="miter" stroke-miterlimit="10" stroke-dasharray="" stroke-dashoffset="0" font-family="none" font-weight="none" font-size="none" text-anchor="none" style="mix-blend-mode: normal"></path></g><g transform="matrix(1,0,0,1,64,155.8339995968566)"><svg viewBox="0 0 192 48.332000806286814" height="48.332000806286814" width="192"><g><svg viewBox="0 0 272.2361843905512 68.52978897637796" height="48.332000806286814" width="192"><g transform="matrix(1,0,0,1,80.23618439055119,9.471193700787403)"><svg viewBox="0 0 192 49.58740157480315" height="49.58740157480315" width="192"><g id="SvgjsG1039"><svg viewBox="0 0 192 49.58740157480315" height="49.58740157480315" width="192" id="SvgjsSvg1038"><g><svg viewBox="0 0 192 49.58740157480315" height="49.58740157480315" width="192"><g transform="matrix(1,0,0,1,0,0)"><svg width="192" viewBox="4 -40.45 158.74 41" height="49.58740157480315" data-palette-color="url(#39a55ba9-10fa-40f9-a85d-f42fff30cb3a)"></svg></g></svg></g></svg></g></svg></g><g><svg viewBox="0 0 68.52978897637796 68.52978897637796" height="68.52978897637796" width="68.52978897637796"><g><svg xmlns="http://www.w3.org/2000/svg" xmlns:xlink="http://www.w3.org/1999/xlink" version="1.0" x="0" y="0" viewBox="1 1 48 48" enable-background="new 0 0 50 50" xml:space="preserve" height="68.52978897637796" width="68.52978897637796" class="icon-icon-0" data-fill-palette-color="accent" id="SvgjsSvg1037"><g fill="white"><g fill="white"><rect x="1" y="1" fill="white" width="23" height="5"></rect><rect x="1" y="10" fill="white" width="23" height="5"></rect><rect x="1" y="19" fill="white" width="23" height="5"></rect></g><g fill="white"><rect x="26" y="26" fill="white" width="23" height="5"></rect><rect x="26" y="35" fill="white" width="23" height="5"></rect><rect x="26" y="44" fill="white" width="23" height="5"></rect></g><g fill="white"><rect x="19" y="26" fill="white" width="5" height="23"></rect><rect x="10" y="26" fill="white" width="5" height="23"></rect><rect x="1" y="26" fill="white" width="5" height="23"></rect></g><g fill="white"><rect x="44" y="1" fill="white" width="5" height="23"></rect><rect x="35" y="1" fill="white" width="5" height="23"></rect><rect x="26" y="1" fill="white" width="5" height="23"></rect></g></g></svg></g></svg></g></svg></g></svg></g></svg></g><defs><mask></mask></defs><mask><g id="SvgjsG1036"><svg viewBox="0 0 320 360" height="360" width="320"><g><svg></svg></g><g><svg viewBox="0 0 320 360" height="360" width="320"><g><path transform="translate(-25.80645,-5.80645) scale(10.32258,10.32258)" d="M18 33.5c8.55 0 15.5-6.95 15.5-15.5 0-8.55-6.95-15.5-15.5-15.5-8.55 0-15.5 6.95-15.5 15.5 0 8.55 6.95 15.5 15.5 15.5zM18.5 32.47v-1c7.04-0.26 12.71-5.93 12.97-12.97h1c-0.26 7.6-6.37 13.71-13.97 13.97zM18.5 3.53c7.6 0.26 13.71 6.37 13.97 13.97h-1c-0.26-7.04-5.93-12.71-12.97-12.97zM30.5 18c0 6.89-5.61 12.5-12.5 12.5-6.89 0-12.5-5.61-12.5-12.5 0-6.89 5.61-12.5 12.5-12.5 6.89 0 12.5 5.61 12.5 12.5zM17.5 3.53v1c-7.04 0.26-12.71 5.93-12.97 12.97h-1c0.26-7.6 6.37-13.71 13.97-13.97zM4.53 18.5c0.26 7.04 5.93 12.71 12.97 12.97v1c-7.6-0.26-13.71-6.37-13.97-13.97z" fill="black" fill-rule="nonzero" stroke="none" stroke-width="1" stroke-linecap="butt" stroke-linejoin="miter" stroke-miterlimit="10" stroke-dasharray="" stroke-dashoffset="0" font-family="none" font-weight="none" font-size="none" text-anchor="none" style="mix-blend-mode: normal"></path></g><g transform="matrix(1,0,0,1,64,155.8339995968566)"><svg viewBox="0 0 192 48.332000806286814" height="48.332000806286814" width="192"><g><svg viewBox="0 0 272.2361843905512 68.52978897637796" height="48.332000806286814" width="192"><g transform="matrix(1,0,0,1,80.23618439055119,9.471193700787403)"><svg viewBox="0 0 192 49.58740157480315" height="49.58740157480315" width="192"><g id="SvgjsG1035"><svg viewBox="0 0 192 49.58740157480315" height="49.58740157480315" width="192" id="SvgjsSvg1034"><g><svg viewBox="0 0 192 49.58740157480315" height="49.58740157480315" width="192"><g transform="matrix(1,0,0,1,0,0)"><svg width="192" viewBox="4 -40.45 158.74 41" height="49.58740157480315" data-palette-color="url(#39a55ba9-10fa-40f9-a85d-f42fff30cb3a)"><path d="M14.85-5L21.65-5Q23.5-5 24.25-6.05 25-7.1 25-8.4L25-8.4 25-31.3Q25-32.55 24.25-33.6 23.5-34.65 21.65-34.65L21.65-34.65 9.95-34.65 9.9-2.05Q9.9-0.95 9.05-0.3 8.2 0.35 6.95 0.35L6.95 0.35Q4 0.35 4-2.05L4-2.05 4-36.7Q4-38.5 4.93-39.1 5.85-39.7 7.15-39.7L7.15-39.7 22.9-39.7Q24.2-39.7 25.6-39.15 27-38.6 28.3-37.75L28.3-37.75 28.25-37.75Q29.55-36.8 30.25-35.27 30.95-33.75 30.95-31.75L30.95-31.75 30.95-8Q30.95-3.95 28.25-1.95L28.25-1.95Q26.95-1 25.58-0.48 24.2 0.05 22.9 0.05L22.9 0.05 14.5 0.05Q13.65 0.05 13.18-0.65 12.7-1.35 12.7-2.5L12.7-2.5Q12.7-5 14.85-5L14.85-5ZM43.7-27.9L43.7-2.1Q43.7 0.3 40.95 0.3L40.95 0.3Q38.15 0.3 38.15-2.1L38.15-2.1 38.15-27.9Q38.15-30.3 40.95-30.3L40.95-30.3Q43.7-30.3 43.7-27.9L43.7-27.9ZM44.75-36.6L44.75-36.6Q44.75-35 43.65-33.9 42.55-32.8 40.95-32.8L40.95-32.8Q39.35-32.8 38.22-33.9 37.1-35 37.1-36.6L37.1-36.6Q37.1-38.25 38.22-39.35 39.35-40.45 40.95-40.45L40.95-40.45Q42.55-40.45 43.65-39.35 44.75-38.25 44.75-36.6ZM72.09-26.5L56.15-8.35 56.15-2Q56.15 0.35 53.4 0.35L53.4 0.35Q50.65 0.35 50.65-2L50.65-2 50.65-37.6Q50.65-40 53.4-40L53.4-40Q56.15-40 56.15-37.6L56.15-37.6 56.15-16.4Q57.4-17.9 58.92-19.63 60.45-21.35 61.97-23.13 63.5-24.9 65-26.63 66.5-28.35 67.8-29.85L67.8-29.85 67.8-29.8Q68.7-30.85 69.59-30.85L69.59-30.85Q70.09-30.85 70.57-30.63 71.05-30.4 71.59-30L71.59-30 71.55-30Q72.75-29 72.75-28L72.75-28Q72.75-27.65 72.59-27.23 72.45-26.8 72.09-26.5L72.09-26.5ZM67.34-13.75L72.84-3.35Q73.2-2.7 73.2-2L73.2-2Q73.2-0.7 71.7-0.05L71.7-0.05Q70.7 0.55 69.9 0.55L69.9 0.55Q69.34 0.55 68.84 0.18 68.34-0.2 68.05-0.75L68.05-0.75 63.05-10.4Q62.6-11.15 62.6-11.9L62.6-11.9Q62.6-13.15 63.9-14L63.9-14Q64.25-14.25 64.62-14.45 65-14.65 65.45-14.75L65.45-14.75Q66-14.85 66.5-14.55 67-14.25 67.34-13.75L67.34-13.75ZM86.19-17.5L93.54-17.5Q94.79-17.5 96.22-16.93 97.64-16.35 98.89-15.5L98.89-15.5 98.84-15.5Q100.14-14.55 100.84-13.05 101.54-11.55 101.54-9.45L101.54-9.45 101.54-7.95Q101.54-3.85 98.84-1.9L98.84-1.9Q97.54-0.9 96.19-0.45 94.84 0 93.54 0L93.54 0 85.04 0Q83.74 0 82.39-0.45 81.04-0.9 79.74-1.9L79.74-1.9Q77.04-3.8 77.04-7.95L77.04-7.95 77.04-8.55Q77.04-10.7 79.79-10.65L79.79-10.65Q82.59-10.65 82.59-8.55L82.59-8.55 82.59-8Q82.59-6.8 83.34-5.75 84.09-4.7 85.99-4.7L85.99-4.7 92.59-4.7Q94.49-4.7 95.24-5.75 95.99-6.8 95.99-8L95.99-8 95.99-9.4Q95.99-10.05 95.82-10.65 95.64-11.25 95.24-11.73 94.84-12.2 94.19-12.5 93.54-12.8 92.59-12.8L92.59-12.8 85.29-12.8Q82.74-12.8 79.94-14.6L79.94-14.6Q77.29-16.3 77.29-20.45L77.29-20.45 77.29-22.15Q77.29-24.15 77.99-25.68 78.69-27.2 79.99-28.15L79.99-28.15 79.94-28.15Q81.19-29 82.59-29.55 83.99-30.1 85.29-30.1L85.29-30.1 93.29-30.1Q94.59-30.1 95.97-29.55 97.34-29 98.64-28.15L98.64-28.15 98.59-28.15Q99.89-27.2 100.59-25.68 101.29-24.15 101.29-22.15L101.29-22.15 101.29-21.7Q101.29-20.65 100.59-20.18 99.89-19.7 98.54-19.65L98.54-19.65Q95.79-19.6 95.79-21.7L95.79-21.7 95.79-22.1Q95.79-23.35 95.02-24.38 94.24-25.4 92.39-25.4L92.39-25.4 86.19-25.4Q84.34-25.4 83.57-24.38 82.79-23.35 82.79-22.1L82.79-22.1 82.79-20.9Q82.79-19.6 83.57-18.55 84.34-17.5 86.19-17.5L86.19-17.5ZM113.54-25.4L113.54-2.1Q113.54 0.3 110.79 0.3L110.79 0.3Q108.04 0.3 108.04-2.1L108.04-2.1 108.04-37.6Q108.04-40 110.79-40L110.79-40Q113.54-40 113.54-37.6L113.54-37.6 113.54-30.1 124.09-30.1Q126.64-30.1 129.39-28.2L129.39-28.2Q132.09-26.3 132.09-22.2L132.09-22.2 132.09-2.1Q132.09 0.3 129.34 0.3L129.34 0.3Q126.59 0.3 126.59-2.1L126.59-2.1 126.59-21.75Q126.59-23.05 125.79-24.25L125.79-24.25 125.84-24.2Q125.19-25.4 123.19-25.4L123.19-25.4 113.54-25.4ZM152.79 0L146.24 0Q144.69 0 143.29-0.43 141.89-0.85 140.59-1.65L140.59-1.65 140.59-1.6Q138.14-3.15 138.14-7.3L138.14-7.3 138.14-9.75Q138.14-11.8 138.86-13.33 139.59-14.85 140.89-15.75L140.89-15.75 140.84-15.75Q142.09-16.6 143.49-17.03 144.89-17.45 146.19-17.45L146.19-17.45 157.24-17.45 157.24-22.1Q157.24-23.35 156.46-24.38 155.69-25.4 153.84-25.4L153.84-25.4 147.99-25.4Q146.09-25.4 145.36-24.48 144.64-23.55 144.64-22.3L144.64-22.3 144.64-21.9Q144.64-19.3 141.84-19.3L141.84-19.3Q139.04-19.3 139.04-21.9L139.04-21.9 139.04-22.35Q139.04-24.4 139.76-25.8 140.49-27.2 141.74-28.15L141.74-28.15 141.69-28.15Q142.99-29 144.41-29.55 145.84-30.1 147.14-30.1L147.14-30.1 154.74-30.1Q155.99-30.1 157.41-29.55 158.84-29 160.09-28.15L160.09-28.15 160.04-28.15Q161.34-27.2 162.04-25.68 162.74-24.15 162.74-22.15L162.74-22.15 162.74-2.1Q162.74 0.3 159.99 0.3L159.99 0.3Q159.44 0.3 158.96 0.25 158.49 0.2 158.11-0.03 157.74-0.25 157.51-0.68 157.29-1.1 157.29-1.8L157.29-1.8 157.24-12.75 147.14-12.75Q146.04-12.75 145.44-12.5 144.84-12.25 144.49-11.7L144.49-11.7Q144.09-10.85 143.91-10.38 143.74-9.9 143.74-9.3L143.74-9.3 143.74-7.35Q143.74-6.05 144.51-5.38 145.29-4.7 147.19-4.7L147.19-4.7 152.79-4.7Q154.64-4.7 154.64-2.35L154.64-2.35Q154.64-1.35 154.19-0.68 153.74 0 152.79 0L152.79 0Z" opacity="1" transform="matrix(1,0,0,1,0,0)" fill="black" class="wordmark-text-0" id="SvgjsPath1033"></path></svg></g></svg></g></svg></g></svg></g><g><svg viewBox="0 0 68.52978897637796 68.52978897637796" height="68.52978897637796" width="68.52978897637796"><g><svg xmlns="http://www.w3.org/2000/svg" xmlns:xlink="http://www.w3.org/1999/xlink" version="1.0" x="0" y="0" viewBox="1 1 48 48" enable-background="new 0 0 50 50" xml:space="preserve" height="68.52978897637796" width="68.52978897637796" class="icon-icon-0" data-fill-palette-color="accent" id="SvgjsSvg1032"><g fill="black"><g fill="black"><rect x="1" y="1" fill="black" width="23" height="5"></rect><rect x="1" y="10" fill="black" width="23" height="5"></rect><rect x="1" y="19" fill="black" width="23" height="5"></rect></g><g fill="black"><rect x="26" y="26" fill="black" width="23" height="5"></rect><rect x="26" y="35" fill="black" width="23" height="5"></rect><rect x="26" y="44" fill="black" width="23" height="5"></rect></g><g fill="black"><rect x="19" y="26" fill="black" width="5" height="23"></rect><rect x="10" y="26" fill="black" width="5" height="23"></rect><rect x="1" y="26" fill="black" width="5" height="23"></rect></g><g fill="black"><rect x="44" y="1" fill="black" width="5" height="23"></rect><rect x="35" y="1" fill="black" width="5" height="23"></rect><rect x="26" y="1" fill="black" width="5" height="23"></rect></g></g></svg></g></svg></g></svg></g></svg></g></svg></g><defs><mask></mask></defs></svg><rect width="320" height="360" fill="black" stroke="none" visibility="hidden"></rect></g></mask></svg><rect width="320" height="360" fill="black" stroke="none" visibility="hidden"></rect></g></mask><linearGradient x1="0" x2="1" y1="0.578" y2="0.595" id="91b9e839-c3c3-4ade-a211-10b08a5e6ba8"><stop stop-color="#dede50" offset="0"></stop><stop stop-color="#559c49" offset="1"></stop></linearGradient><rect width="320" height="360" fill="url(#91b9e839-c3c3-4ade-a211-10b08a5e6ba8)" mask="url(#3fe5fc8c-4595-46d7-895b-67ca716ac43e)" data-fill-palette-color="accent"></rect><mask id="a638b2d9-bff2-487d-9397-a521d9ff2552"><g id="SvgjsG1058"><svg viewBox="0 0 320 360" height="360" width="320"><g><svg></svg></g><g><svg viewBox="0 0 320 360" height="360" width="320"><g><path transform="translate(-25.80645,-5.80645) scale(10.32258,10.32258)" d="M18 33.5c8.55 0 15.5-6.95 15.5-15.5 0-8.55-6.95-15.5-15.5-15.5-8.55 0-15.5 6.95-15.5 15.5 0 8.55 6.95 15.5 15.5 15.5zM18.5 32.47v-1c7.04-0.26 12.71-5.93 12.97-12.97h1c-0.26 7.6-6.37 13.71-13.97 13.97zM18.5 3.53c7.6 0.26 13.71 6.37 13.97 13.97h-1c-0.26-7.04-5.93-12.71-12.97-12.97zM30.5 18c0 6.89-5.61 12.5-12.5 12.5-6.89 0-12.5-5.61-12.5-12.5 0-6.89 5.61-12.5 12.5-12.5 6.89 0 12.5 5.61 12.5 12.5zM17.5 3.53v1c-7.04 0.26-12.71 5.93-12.97 12.97h-1c0.26-7.6 6.37-13.71 13.97-13.97zM4.53 18.5c0.26 7.04 5.93 12.71 12.97 12.97v1c-7.6-0.26-13.71-6.37-13.97-13.97z" fill="white" fill-rule="nonzero" stroke="none" stroke-width="1" stroke-linecap="butt" stroke-linejoin="miter" stroke-miterlimit="10" stroke-dasharray="" stroke-dashoffset="0" font-family="none" font-weight="none" font-size="none" text-anchor="none" style="mix-blend-mode: normal"></path></g><g transform="matrix(1,0,0,1,64,155.8339995968566)"><svg viewBox="0 0 192 48.332000806286814" height="48.332000806286814" width="192"><g><svg viewBox="0 0 272.2361843905512 68.52978897637796" height="48.332000806286814" width="192"><g transform="matrix(1,0,0,1,80.23618439055119,9.471193700787403)"><svg viewBox="0 0 192 49.58740157480315" height="49.58740157480315" width="192"><g id="SvgjsG1057"><svg viewBox="0 0 192 49.58740157480315" height="49.58740157480315" width="192" id="SvgjsSvg1056"><g><svg viewBox="0 0 192 49.58740157480315" height="49.58740157480315" width="192"><g transform="matrix(1,0,0,1,0,0)"><svg width="192" viewBox="4 -40.45 158.74 41" height="49.58740157480315" data-palette-color="url(#39a55ba9-10fa-40f9-a85d-f42fff30cb3a)"></svg></g></svg></g></svg></g></svg></g><g><svg viewBox="0 0 68.52978897637796 68.52978897637796" height="68.52978897637796" width="68.52978897637796"><g><svg xmlns="http://www.w3.org/2000/svg" xmlns:xlink="http://www.w3.org/1999/xlink" version="1.0" x="0" y="0" viewBox="1 1 48 48" enable-background="new 0 0 50 50" xml:space="preserve" height="68.52978897637796" width="68.52978897637796" class="icon-icon-0" data-fill-palette-color="accent" id="SvgjsSvg1055"></svg></g></svg></g></svg></g></svg></g></svg></g><defs><mask></mask></defs><mask><g id="SvgjsG1054"><svg viewBox="0 0 320 360" height="360" width="320"><g><svg></svg></g><g><svg viewBox="0 0 320 360" height="360" width="320"><g><path transform="translate(-25.80645,-5.80645) scale(10.32258,10.32258)" d="M18 33.5c8.55 0 15.5-6.95 15.5-15.5 0-8.55-6.95-15.5-15.5-15.5-8.55 0-15.5 6.95-15.5 15.5 0 8.55 6.95 15.5 15.5 15.5zM18.5 32.47v-1c7.04-0.26 12.71-5.93 12.97-12.97h1c-0.26 7.6-6.37 13.71-13.97 13.97zM18.5 3.53c7.6 0.26 13.71 6.37 13.97 13.97h-1c-0.26-7.04-5.93-12.71-12.97-12.97zM30.5 18c0 6.89-5.61 12.5-12.5 12.5-6.89 0-12.5-5.61-12.5-12.5 0-6.89 5.61-12.5 12.5-12.5 6.89 0 12.5 5.61 12.5 12.5zM17.5 3.53v1c-7.04 0.26-12.71 5.93-12.97 12.97h-1c0.26-7.6 6.37-13.71 13.97-13.97zM4.53 18.5c0.26 7.04 5.93 12.71 12.97 12.97v1c-7.6-0.26-13.71-6.37-13.97-13.97z" fill="black" fill-rule="nonzero" stroke="none" stroke-width="1" stroke-linecap="butt" stroke-linejoin="miter" stroke-miterlimit="10" stroke-dasharray="" stroke-dashoffset="0" font-family="none" font-weight="none" font-size="none" text-anchor="none" style="mix-blend-mode: normal"></path></g><g transform="matrix(1,0,0,1,64,155.8339995968566)"><svg viewBox="0 0 192 48.332000806286814" height="48.332000806286814" width="192"><g><svg viewBox="0 0 272.2361843905512 68.52978897637796" height="48.332000806286814" width="192"><g transform="matrix(1,0,0,1,80.23618439055119,9.471193700787403)"><svg viewBox="0 0 192 49.58740157480315" height="49.58740157480315" width="192"><g id="SvgjsG1053"><svg viewBox="0 0 192 49.58740157480315" height="49.58740157480315" width="192" id="SvgjsSvg1052"><g><svg viewBox="0 0 192 49.58740157480315" height="49.58740157480315" width="192"><g transform="matrix(1,0,0,1,0,0)"><svg width="192" viewBox="4 -40.45 158.74 41" height="49.58740157480315" data-palette-color="url(#39a55ba9-10fa-40f9-a85d-f42fff30cb3a)"><path d="M14.85-5L21.65-5Q23.5-5 24.25-6.05 25-7.1 25-8.4L25-8.4 25-31.3Q25-32.55 24.25-33.6 23.5-34.65 21.65-34.65L21.65-34.65 9.95-34.65 9.9-2.05Q9.9-0.95 9.05-0.3 8.2 0.35 6.95 0.35L6.95 0.35Q4 0.35 4-2.05L4-2.05 4-36.7Q4-38.5 4.93-39.1 5.85-39.7 7.15-39.7L7.15-39.7 22.9-39.7Q24.2-39.7 25.6-39.15 27-38.6 28.3-37.75L28.3-37.75 28.25-37.75Q29.55-36.8 30.25-35.27 30.95-33.75 30.95-31.75L30.95-31.75 30.95-8Q30.95-3.95 28.25-1.95L28.25-1.95Q26.95-1 25.58-0.48 24.2 0.05 22.9 0.05L22.9 0.05 14.5 0.05Q13.65 0.05 13.18-0.65 12.7-1.35 12.7-2.5L12.7-2.5Q12.7-5 14.85-5L14.85-5ZM43.7-27.9L43.7-2.1Q43.7 0.3 40.95 0.3L40.95 0.3Q38.15 0.3 38.15-2.1L38.15-2.1 38.15-27.9Q38.15-30.3 40.95-30.3L40.95-30.3Q43.7-30.3 43.7-27.9L43.7-27.9ZM44.75-36.6L44.75-36.6Q44.75-35 43.65-33.9 42.55-32.8 40.95-32.8L40.95-32.8Q39.35-32.8 38.22-33.9 37.1-35 37.1-36.6L37.1-36.6Q37.1-38.25 38.22-39.35 39.35-40.45 40.95-40.45L40.95-40.45Q42.55-40.45 43.65-39.35 44.75-38.25 44.75-36.6ZM72.09-26.5L56.15-8.35 56.15-2Q56.15 0.35 53.4 0.35L53.4 0.35Q50.65 0.35 50.65-2L50.65-2 50.65-37.6Q50.65-40 53.4-40L53.4-40Q56.15-40 56.15-37.6L56.15-37.6 56.15-16.4Q57.4-17.9 58.92-19.63 60.45-21.35 61.97-23.13 63.5-24.9 65-26.63 66.5-28.35 67.8-29.85L67.8-29.85 67.8-29.8Q68.7-30.85 69.59-30.85L69.59-30.85Q70.09-30.85 70.57-30.63 71.05-30.4 71.59-30L71.59-30 71.55-30Q72.75-29 72.75-28L72.75-28Q72.75-27.65 72.59-27.23 72.45-26.8 72.09-26.5L72.09-26.5ZM67.34-13.75L72.84-3.35Q73.2-2.7 73.2-2L73.2-2Q73.2-0.7 71.7-0.05L71.7-0.05Q70.7 0.55 69.9 0.55L69.9 0.55Q69.34 0.55 68.84 0.18 68.34-0.2 68.05-0.75L68.05-0.75 63.05-10.4Q62.6-11.15 62.6-11.9L62.6-11.9Q62.6-13.15 63.9-14L63.9-14Q64.25-14.25 64.62-14.45 65-14.65 65.45-14.75L65.45-14.75Q66-14.85 66.5-14.55 67-14.25 67.34-13.75L67.34-13.75ZM86.19-17.5L93.54-17.5Q94.79-17.5 96.22-16.93 97.64-16.35 98.89-15.5L98.89-15.5 98.84-15.5Q100.14-14.55 100.84-13.05 101.54-11.55 101.54-9.45L101.54-9.45 101.54-7.95Q101.54-3.85 98.84-1.9L98.84-1.9Q97.54-0.9 96.19-0.45 94.84 0 93.54 0L93.54 0 85.04 0Q83.74 0 82.39-0.45 81.04-0.9 79.74-1.9L79.74-1.9Q77.04-3.8 77.04-7.95L77.04-7.95 77.04-8.55Q77.04-10.7 79.79-10.65L79.79-10.65Q82.59-10.65 82.59-8.55L82.59-8.55 82.59-8Q82.59-6.8 83.34-5.75 84.09-4.7 85.99-4.7L85.99-4.7 92.59-4.7Q94.49-4.7 95.24-5.75 95.99-6.8 95.99-8L95.99-8 95.99-9.4Q95.99-10.05 95.82-10.65 95.64-11.25 95.24-11.73 94.84-12.2 94.19-12.5 93.54-12.8 92.59-12.8L92.59-12.8 85.29-12.8Q82.74-12.8 79.94-14.6L79.94-14.6Q77.29-16.3 77.29-20.45L77.29-20.45 77.29-22.15Q77.29-24.15 77.99-25.68 78.69-27.2 79.99-28.15L79.99-28.15 79.94-28.15Q81.19-29 82.59-29.55 83.99-30.1 85.29-30.1L85.29-30.1 93.29-30.1Q94.59-30.1 95.97-29.55 97.34-29 98.64-28.15L98.64-28.15 98.59-28.15Q99.89-27.2 100.59-25.68 101.29-24.15 101.29-22.15L101.29-22.15 101.29-21.7Q101.29-20.65 100.59-20.18 99.89-19.7 98.54-19.65L98.54-19.65Q95.79-19.6 95.79-21.7L95.79-21.7 95.79-22.1Q95.79-23.35 95.02-24.38 94.24-25.4 92.39-25.4L92.39-25.4 86.19-25.4Q84.34-25.4 83.57-24.38 82.79-23.35 82.79-22.1L82.79-22.1 82.79-20.9Q82.79-19.6 83.57-18.55 84.34-17.5 86.19-17.5L86.19-17.5ZM113.54-25.4L113.54-2.1Q113.54 0.3 110.79 0.3L110.79 0.3Q108.04 0.3 108.04-2.1L108.04-2.1 108.04-37.6Q108.04-40 110.79-40L110.79-40Q113.54-40 113.54-37.6L113.54-37.6 113.54-30.1 124.09-30.1Q126.64-30.1 129.39-28.2L129.39-28.2Q132.09-26.3 132.09-22.2L132.09-22.2 132.09-2.1Q132.09 0.3 129.34 0.3L129.34 0.3Q126.59 0.3 126.59-2.1L126.59-2.1 126.59-21.75Q126.59-23.05 125.79-24.25L125.79-24.25 125.84-24.2Q125.19-25.4 123.19-25.4L123.19-25.4 113.54-25.4ZM152.79 0L146.24 0Q144.69 0 143.29-0.43 141.89-0.85 140.59-1.65L140.59-1.65 140.59-1.6Q138.14-3.15 138.14-7.3L138.14-7.3 138.14-9.75Q138.14-11.8 138.86-13.33 139.59-14.85 140.89-15.75L140.89-15.75 140.84-15.75Q142.09-16.6 143.49-17.03 144.89-17.45 146.19-17.45L146.19-17.45 157.24-17.45 157.24-22.1Q157.24-23.35 156.46-24.38 155.69-25.4 153.84-25.4L153.84-25.4 147.99-25.4Q146.09-25.4 145.36-24.48 144.64-23.55 144.64-22.3L144.64-22.3 144.64-21.9Q144.64-19.3 141.84-19.3L141.84-19.3Q139.04-19.3 139.04-21.9L139.04-21.9 139.04-22.35Q139.04-24.4 139.76-25.8 140.49-27.2 141.74-28.15L141.74-28.15 141.69-28.15Q142.99-29 144.41-29.55 145.84-30.1 147.14-30.1L147.14-30.1 154.74-30.1Q155.99-30.1 157.41-29.55 158.84-29 160.09-28.15L160.09-28.15 160.04-28.15Q161.34-27.2 162.04-25.68 162.74-24.15 162.74-22.15L162.74-22.15 162.74-2.1Q162.74 0.3 159.99 0.3L159.99 0.3Q159.44 0.3 158.96 0.25 158.49 0.2 158.11-0.03 157.74-0.25 157.51-0.68 157.29-1.1 157.29-1.8L157.29-1.8 157.24-12.75 147.14-12.75Q146.04-12.75 145.44-12.5 144.84-12.25 144.49-11.7L144.49-11.7Q144.09-10.85 143.91-10.38 143.74-9.9 143.74-9.3L143.74-9.3 143.74-7.35Q143.74-6.05 144.51-5.38 145.29-4.7 147.19-4.7L147.19-4.7 152.79-4.7Q154.64-4.7 154.64-2.35L154.64-2.35Q154.64-1.35 154.19-0.68 153.74 0 152.79 0L152.79 0Z" opacity="1" transform="matrix(1,0,0,1,0,0)" fill="black" class="wordmark-text-0" id="SvgjsPath1051"></path></svg></g></svg></g></svg></g></svg></g><g><svg viewBox="0 0 68.52978897637796 68.52978897637796" height="68.52978897637796" width="68.52978897637796"><g><svg xmlns="http://www.w3.org/2000/svg" xmlns:xlink="http://www.w3.org/1999/xlink" version="1.0" x="0" y="0" viewBox="1 1 48 48" enable-background="new 0 0 50 50" xml:space="preserve" height="68.52978897637796" width="68.52978897637796" class="icon-icon-0" data-fill-palette-color="accent" id="SvgjsSvg1050"><g fill="black"><g fill="black"><rect x="1" y="1" fill="black" width="23" height="5"></rect><rect x="1" y="10" fill="black" width="23" height="5"></rect><rect x="1" y="19" fill="black" width="23" height="5"></rect></g><g fill="black"><rect x="26" y="26" fill="black" width="23" height="5"></rect><rect x="26" y="35" fill="black" width="23" height="5"></rect><rect x="26" y="44" fill="black" width="23" height="5"></rect></g><g fill="black"><rect x="19" y="26" fill="black" width="5" height="23"></rect><rect x="10" y="26" fill="black" width="5" height="23"></rect><rect x="1" y="26" fill="black" width="5" height="23"></rect></g><g fill="black"><rect x="44" y="1" fill="black" width="5" height="23"></rect><rect x="35" y="1" fill="black" width="5" height="23"></rect><rect x="26" y="1" fill="black" width="5" height="23"></rect></g></g></svg></g></svg></g></svg></g></svg></g></svg></g><defs><mask></mask></defs></svg><rect width="320" height="360" fill="black" stroke="none" visibility="hidden"></rect></g></mask><mask><g id="SvgjsG1049"><svg viewBox="0 0 320 360" height="360" width="320"><g><svg></svg></g><g><svg viewBox="0 0 320 360" height="360" width="320"><g><path transform="translate(-25.80645,-5.80645) scale(10.32258,10.32258)" d="M18 33.5c8.55 0 15.5-6.95 15.5-15.5 0-8.55-6.95-15.5-15.5-15.5-8.55 0-15.5 6.95-15.5 15.5 0 8.55 6.95 15.5 15.5 15.5zM18.5 32.47v-1c7.04-0.26 12.71-5.93 12.97-12.97h1c-0.26 7.6-6.37 13.71-13.97 13.97zM18.5 3.53c7.6 0.26 13.71 6.37 13.97 13.97h-1c-0.26-7.04-5.93-12.71-12.97-12.97zM30.5 18c0 6.89-5.61 12.5-12.5 12.5-6.89 0-12.5-5.61-12.5-12.5 0-6.89 5.61-12.5 12.5-12.5 6.89 0 12.5 5.61 12.5 12.5zM17.5 3.53v1c-7.04 0.26-12.71 5.93-12.97 12.97h-1c0.26-7.6 6.37-13.71 13.97-13.97zM4.53 18.5c0.26 7.04 5.93 12.71 12.97 12.97v1c-7.6-0.26-13.71-6.37-13.97-13.97z" fill="black" fill-rule="nonzero" stroke="none" stroke-width="1" stroke-linecap="butt" stroke-linejoin="miter" stroke-miterlimit="10" stroke-dasharray="" stroke-dashoffset="0" font-family="none" font-weight="none" font-size="none" text-anchor="none" style="mix-blend-mode: normal"></path></g><g transform="matrix(1,0,0,1,64,155.8339995968566)"><svg viewBox="0 0 192 48.332000806286814" height="48.332000806286814" width="192"><g><svg viewBox="0 0 272.2361843905512 68.52978897637796" height="48.332000806286814" width="192"><g transform="matrix(1,0,0,1,80.23618439055119,9.471193700787403)"><svg viewBox="0 0 192 49.58740157480315" height="49.58740157480315" width="192"><g id="SvgjsG1048"><svg viewBox="0 0 192 49.58740157480315" height="49.58740157480315" width="192" id="SvgjsSvg1047"><g><svg viewBox="0 0 192 49.58740157480315" height="49.58740157480315" width="192"><g transform="matrix(1,0,0,1,0,0)"><svg width="192" viewBox="4 -40.45 158.74 41" height="49.58740157480315" data-palette-color="url(#39a55ba9-10fa-40f9-a85d-f42fff30cb3a)"></svg></g></svg></g></svg></g></svg></g><g><svg viewBox="0 0 68.52978897637796 68.52978897637796" height="68.52978897637796" width="68.52978897637796"><g><svg xmlns="http://www.w3.org/2000/svg" xmlns:xlink="http://www.w3.org/1999/xlink" version="1.0" x="0" y="0" viewBox="1 1 48 48" enable-background="new 0 0 50 50" xml:space="preserve" height="68.52978897637796" width="68.52978897637796" class="icon-icon-0" data-fill-palette-color="accent" id="SvgjsSvg1046"><g fill="black"><g fill="black"><rect x="1" y="1" fill="black" width="23" height="5"></rect><rect x="1" y="10" fill="black" width="23" height="5"></rect><rect x="1" y="19" fill="black" width="23" height="5"></rect></g><g fill="black"><rect x="26" y="26" fill="black" width="23" height="5"></rect><rect x="26" y="35" fill="black" width="23" height="5"></rect><rect x="26" y="44" fill="black" width="23" height="5"></rect></g><g fill="black"><rect x="19" y="26" fill="black" width="5" height="23"></rect><rect x="10" y="26" fill="black" width="5" height="23"></rect><rect x="1" y="26" fill="black" width="5" height="23"></rect></g><g fill="black"><rect x="44" y="1" fill="black" width="5" height="23"></rect><rect x="35" y="1" fill="black" width="5" height="23"></rect><rect x="26" y="1" fill="black" width="5" height="23"></rect></g></g></svg></g></svg></g></svg></g></svg></g></svg></g><defs><mask></mask></defs><mask><g id="SvgjsG1045"><svg viewBox="0 0 320 360" height="360" width="320"><g><svg></svg></g><g><svg viewBox="0 0 320 360" height="360" width="320"><g><path transform="translate(-25.80645,-5.80645) scale(10.32258,10.32258)" d="M18 33.5c8.55 0 15.5-6.95 15.5-15.5 0-8.55-6.95-15.5-15.5-15.5-8.55 0-15.5 6.95-15.5 15.5 0 8.55 6.95 15.5 15.5 15.5zM18.5 32.47v-1c7.04-0.26 12.71-5.93 12.97-12.97h1c-0.26 7.6-6.37 13.71-13.97 13.97zM18.5 3.53c7.6 0.26 13.71 6.37 13.97 13.97h-1c-0.26-7.04-5.93-12.71-12.97-12.97zM30.5 18c0 6.89-5.61 12.5-12.5 12.5-6.89 0-12.5-5.61-12.5-12.5 0-6.89 5.61-12.5 12.5-12.5 6.89 0 12.5 5.61 12.5 12.5zM17.5 3.53v1c-7.04 0.26-12.71 5.93-12.97 12.97h-1c0.26-7.6 6.37-13.71 13.97-13.97zM4.53 18.5c0.26 7.04 5.93 12.71 12.97 12.97v1c-7.6-0.26-13.71-6.37-13.97-13.97z" fill="black" fill-rule="nonzero" stroke="none" stroke-width="1" stroke-linecap="butt" stroke-linejoin="miter" stroke-miterlimit="10" stroke-dasharray="" stroke-dashoffset="0" font-family="none" font-weight="none" font-size="none" text-anchor="none" style="mix-blend-mode: normal"></path></g><g transform="matrix(1,0,0,1,64,155.8339995968566)"><svg viewBox="0 0 192 48.332000806286814" height="48.332000806286814" width="192"><g><svg viewBox="0 0 272.2361843905512 68.52978897637796" height="48.332000806286814" width="192"><g transform="matrix(1,0,0,1,80.23618439055119,9.471193700787403)"><svg viewBox="0 0 192 49.58740157480315" height="49.58740157480315" width="192"><g id="SvgjsG1044"><svg viewBox="0 0 192 49.58740157480315" height="49.58740157480315" width="192" id="SvgjsSvg1043"><g><svg viewBox="0 0 192 49.58740157480315" height="49.58740157480315" width="192"><g transform="matrix(1,0,0,1,0,0)"><svg width="192" viewBox="4 -40.45 158.74 41" height="49.58740157480315" data-palette-color="url(#39a55ba9-10fa-40f9-a85d-f42fff30cb3a)"><path d="M14.85-5L21.65-5Q23.5-5 24.25-6.05 25-7.1 25-8.4L25-8.4 25-31.3Q25-32.55 24.25-33.6 23.5-34.65 21.65-34.65L21.65-34.65 9.95-34.65 9.9-2.05Q9.9-0.95 9.05-0.3 8.2 0.35 6.95 0.35L6.95 0.35Q4 0.35 4-2.05L4-2.05 4-36.7Q4-38.5 4.93-39.1 5.85-39.7 7.15-39.7L7.15-39.7 22.9-39.7Q24.2-39.7 25.6-39.15 27-38.6 28.3-37.75L28.3-37.75 28.25-37.75Q29.55-36.8 30.25-35.27 30.95-33.75 30.95-31.75L30.95-31.75 30.95-8Q30.95-3.95 28.25-1.95L28.25-1.95Q26.95-1 25.58-0.48 24.2 0.05 22.9 0.05L22.9 0.05 14.5 0.05Q13.65 0.05 13.18-0.65 12.7-1.35 12.7-2.5L12.7-2.5Q12.7-5 14.85-5L14.85-5ZM43.7-27.9L43.7-2.1Q43.7 0.3 40.95 0.3L40.95 0.3Q38.15 0.3 38.15-2.1L38.15-2.1 38.15-27.9Q38.15-30.3 40.95-30.3L40.95-30.3Q43.7-30.3 43.7-27.9L43.7-27.9ZM44.75-36.6L44.75-36.6Q44.75-35 43.65-33.9 42.55-32.8 40.95-32.8L40.95-32.8Q39.35-32.8 38.22-33.9 37.1-35 37.1-36.6L37.1-36.6Q37.1-38.25 38.22-39.35 39.35-40.45 40.95-40.45L40.95-40.45Q42.55-40.45 43.65-39.35 44.75-38.25 44.75-36.6ZM72.09-26.5L56.15-8.35 56.15-2Q56.15 0.35 53.4 0.35L53.4 0.35Q50.65 0.35 50.65-2L50.65-2 50.65-37.6Q50.65-40 53.4-40L53.4-40Q56.15-40 56.15-37.6L56.15-37.6 56.15-16.4Q57.4-17.9 58.92-19.63 60.45-21.35 61.97-23.13 63.5-24.9 65-26.63 66.5-28.35 67.8-29.85L67.8-29.85 67.8-29.8Q68.7-30.85 69.59-30.85L69.59-30.85Q70.09-30.85 70.57-30.63 71.05-30.4 71.59-30L71.59-30 71.55-30Q72.75-29 72.75-28L72.75-28Q72.75-27.65 72.59-27.23 72.45-26.8 72.09-26.5L72.09-26.5ZM67.34-13.75L72.84-3.35Q73.2-2.7 73.2-2L73.2-2Q73.2-0.7 71.7-0.05L71.7-0.05Q70.7 0.55 69.9 0.55L69.9 0.55Q69.34 0.55 68.84 0.18 68.34-0.2 68.05-0.75L68.05-0.75 63.05-10.4Q62.6-11.15 62.6-11.9L62.6-11.9Q62.6-13.15 63.9-14L63.9-14Q64.25-14.25 64.62-14.45 65-14.65 65.45-14.75L65.45-14.75Q66-14.85 66.5-14.55 67-14.25 67.34-13.75L67.34-13.75ZM86.19-17.5L93.54-17.5Q94.79-17.5 96.22-16.93 97.64-16.35 98.89-15.5L98.89-15.5 98.84-15.5Q100.14-14.55 100.84-13.05 101.54-11.55 101.54-9.45L101.54-9.45 101.54-7.95Q101.54-3.85 98.84-1.9L98.84-1.9Q97.54-0.9 96.19-0.45 94.84 0 93.54 0L93.54 0 85.04 0Q83.74 0 82.39-0.45 81.04-0.9 79.74-1.9L79.74-1.9Q77.04-3.8 77.04-7.95L77.04-7.95 77.04-8.55Q77.04-10.7 79.79-10.65L79.79-10.65Q82.59-10.65 82.59-8.55L82.59-8.55 82.59-8Q82.59-6.8 83.34-5.75 84.09-4.7 85.99-4.7L85.99-4.7 92.59-4.7Q94.49-4.7 95.24-5.75 95.99-6.8 95.99-8L95.99-8 95.99-9.4Q95.99-10.05 95.82-10.65 95.64-11.25 95.24-11.73 94.84-12.2 94.19-12.5 93.54-12.8 92.59-12.8L92.59-12.8 85.29-12.8Q82.74-12.8 79.94-14.6L79.94-14.6Q77.29-16.3 77.29-20.45L77.29-20.45 77.29-22.15Q77.29-24.15 77.99-25.68 78.69-27.2 79.99-28.15L79.99-28.15 79.94-28.15Q81.19-29 82.59-29.55 83.99-30.1 85.29-30.1L85.29-30.1 93.29-30.1Q94.59-30.1 95.97-29.55 97.34-29 98.64-28.15L98.64-28.15 98.59-28.15Q99.89-27.2 100.59-25.68 101.29-24.15 101.29-22.15L101.29-22.15 101.29-21.7Q101.29-20.65 100.59-20.18 99.89-19.7 98.54-19.65L98.54-19.65Q95.79-19.6 95.79-21.7L95.79-21.7 95.79-22.1Q95.79-23.35 95.02-24.38 94.24-25.4 92.39-25.4L92.39-25.4 86.19-25.4Q84.34-25.4 83.57-24.38 82.79-23.35 82.79-22.1L82.79-22.1 82.79-20.9Q82.79-19.6 83.57-18.55 84.34-17.5 86.19-17.5L86.19-17.5ZM113.54-25.4L113.54-2.1Q113.54 0.3 110.79 0.3L110.79 0.3Q108.04 0.3 108.04-2.1L108.04-2.1 108.04-37.6Q108.04-40 110.79-40L110.79-40Q113.54-40 113.54-37.6L113.54-37.6 113.54-30.1 124.09-30.1Q126.64-30.1 129.39-28.2L129.39-28.2Q132.09-26.3 132.09-22.2L132.09-22.2 132.09-2.1Q132.09 0.3 129.34 0.3L129.34 0.3Q126.59 0.3 126.59-2.1L126.59-2.1 126.59-21.75Q126.59-23.05 125.79-24.25L125.79-24.25 125.84-24.2Q125.19-25.4 123.19-25.4L123.19-25.4 113.54-25.4ZM152.79 0L146.24 0Q144.69 0 143.29-0.43 141.89-0.85 140.59-1.65L140.59-1.65 140.59-1.6Q138.14-3.15 138.14-7.3L138.14-7.3 138.14-9.75Q138.14-11.8 138.86-13.33 139.59-14.85 140.89-15.75L140.89-15.75 140.84-15.75Q142.09-16.6 143.49-17.03 144.89-17.45 146.19-17.45L146.19-17.45 157.24-17.45 157.24-22.1Q157.24-23.35 156.46-24.38 155.69-25.4 153.84-25.4L153.84-25.4 147.99-25.4Q146.09-25.4 145.36-24.48 144.64-23.55 144.64-22.3L144.64-22.3 144.64-21.9Q144.64-19.3 141.84-19.3L141.84-19.3Q139.04-19.3 139.04-21.9L139.04-21.9 139.04-22.35Q139.04-24.4 139.76-25.8 140.49-27.2 141.74-28.15L141.74-28.15 141.69-28.15Q142.99-29 144.41-29.55 145.84-30.1 147.14-30.1L147.14-30.1 154.74-30.1Q155.99-30.1 157.41-29.55 158.84-29 160.09-28.15L160.09-28.15 160.04-28.15Q161.34-27.2 162.04-25.68 162.74-24.15 162.74-22.15L162.74-22.15 162.74-2.1Q162.74 0.3 159.99 0.3L159.99 0.3Q159.44 0.3 158.96 0.25 158.49 0.2 158.11-0.03 157.74-0.25 157.51-0.68 157.29-1.1 157.29-1.8L157.29-1.8 157.24-12.75 147.14-12.75Q146.04-12.75 145.44-12.5 144.84-12.25 144.49-11.7L144.49-11.7Q144.09-10.85 143.91-10.38 143.74-9.9 143.74-9.3L143.74-9.3 143.74-7.35Q143.74-6.05 144.51-5.38 145.29-4.7 147.19-4.7L147.19-4.7 152.79-4.7Q154.64-4.7 154.64-2.35L154.64-2.35Q154.64-1.35 154.19-0.68 153.74 0 152.79 0L152.79 0Z" opacity="1" transform="matrix(1,0,0,1,0,0)" fill="black" class="wordmark-text-0" id="SvgjsPath1042"></path></svg></g></svg></g></svg></g></svg></g><g><svg viewBox="0 0 68.52978897637796 68.52978897637796" height="68.52978897637796" width="68.52978897637796"><g><svg xmlns="http://www.w3.org/2000/svg" xmlns:xlink="http://www.w3.org/1999/xlink" version="1.0" x="0" y="0" viewBox="1 1 48 48" enable-background="new 0 0 50 50" xml:space="preserve" height="68.52978897637796" width="68.52978897637796" class="icon-icon-0" data-fill-palette-color="accent" id="SvgjsSvg1041"><g fill="black"><g fill="black"><rect x="1" y="1" fill="black" width="23" height="5"></rect><rect x="1" y="10" fill="black" width="23" height="5"></rect><rect x="1" y="19" fill="black" width="23" height="5"></rect></g><g fill="black"><rect x="26" y="26" fill="black" width="23" height="5"></rect><rect x="26" y="35" fill="black" width="23" height="5"></rect><rect x="26" y="44" fill="black" width="23" height="5"></rect></g><g fill="black"><rect x="19" y="26" fill="black" width="5" height="23"></rect><rect x="10" y="26" fill="black" width="5" height="23"></rect><rect x="1" y="26" fill="black" width="5" height="23"></rect></g><g fill="black"><rect x="44" y="1" fill="black" width="5" height="23"></rect><rect x="35" y="1" fill="black" width="5" height="23"></rect><rect x="26" y="1" fill="black" width="5" height="23"></rect></g></g></svg></g></svg></g></svg></g></svg></g></svg></g><defs><mask></mask></defs></svg><rect width="320" height="360" fill="black" stroke="none" visibility="hidden"></rect></g></mask></svg><rect width="320" height="360" fill="black" stroke="none" visibility="hidden"></rect></g></mask></svg><rect width="320" height="360" fill="black" stroke="none" visibility="hidden"></rect></g></mask><linearGradient x1="0" x2="1" y1="0.578" y2="0.595" id="f3b75810-4ff1-4baf-8436-a80a6946b9bd"><stop stop-color="#dede50" offset="0"></stop><stop stop-color="#559c49" offset="1"></stop></linearGradient></svg><rect width="320" height="360" fill="none" stroke="none" visibility="hidden"></rect></g></svg></g></svg>